<?xml version="1.0" encoding="utf-8"?>
<!-- Generator: Adobe Illustrator 25.0.0, SVG Export Plug-In . SVG Version: 6.00 Build 0)  -->
<svg version="1.1" id="Capa_1" xmlns="http://www.w3.org/2000/svg" xmlns:xlink="http://www.w3.org/1999/xlink" x="0px" y="0px"
	 viewBox="0 0 1080 1080" style="enable-background:new 0 0 1080 1080;" xml:space="preserve">
<style type="text/css">
	.st0{fill:#D46CFF;}
	.st1{fill:#00C4FF;}
</style>
<g>
	<path class="st0" d="M899.98,180.06H180.02c-43.57,0-79.01,35.44-79.01,79.01v420.81c0,43.57,35.44,79.01,79.01,79.01h239.59v63.23
		h-63.23c-21.46,0-38.91,17.46-38.91,38.91c0,21.46,17.46,38.91,38.91,38.91h364.81c21.46,0,38.91-17.46,38.91-38.91
		c0-21.46-17.46-38.91-38.91-38.91h-63.23v-63.23h242.02c43.57,0,79.01-35.44,79.01-79.01V259.07
		C978.99,215.5,943.54,180.06,899.98,180.06z M180.02,204.38h719.95c30.15,0,54.69,24.53,54.69,54.69V632.2H125.33V259.07
		C125.33,228.91,149.87,204.38,180.02,204.38z M721.19,846.44c8.05,0,14.59,6.55,14.59,14.59s-6.55,14.59-14.59,14.59H356.38
		c-8.05,0-14.59-6.55-14.59-14.59s6.55-14.59,14.59-14.59h63.23h238.34H721.19z M633.63,822.12h-189.7v-63.23h189.7V822.12z
		 M899.98,734.56H657.95H419.61H180.02c-30.16,0-54.69-24.53-54.69-54.69v-23.35h829.33v23.35
		C954.67,710.03,930.13,734.56,899.98,734.56z"/>
	<g>
		<path class="st1" d="M482.18,487.68c1.64-0.62,1.28-3.03-0.48-3.13c-2.6-0.15-5.15-0.36-7.66-0.79
			c-13.08-2.21-21.11-10.35-24.3-23.03c-13.19-52.29-26.24-104.62-39.35-156.93c-0.2-0.8-0.45-1.59-0.72-2.47
			c-0.21-0.68-0.84-1.15-1.56-1.15c-10.76,0.01-21.38,0.11-32.01-0.03c-11.62-0.15-19.23-10.96-14.96-21.19
			c2.36-5.64,6.77-9.51,12.86-9.61c13.53-0.23,27.16-0.6,40.6,0.69c12.65,1.21,21.2,9.22,24.35,21.62
			c13.28,52.26,26.28,104.58,39.39,156.89c0.31,1.25,0.64,2.5,1.04,4.03c0.19,0.71,0.83,1.22,1.57,1.22h3.96
			c55.32,0,110.64-0.05,165.96,0.1c3.98,0.01,5.49-1.09,6.54-5c8.89-33.33,18.06-66.59,27.13-99.87c0.09-0.33,0.16-0.67,0.21-1.03
			c0.16-0.99-0.6-1.88-1.6-1.88H487.09c-6.92,0-12.96-4.72-14.63-11.43c-0.03-0.1-0.05-0.2-0.08-0.3
			c-2.37-9.51,4.83-18.71,14.63-18.71h216.25c11.04,0,19.07,10.48,16.2,21.14c-1.13,4.2-2.26,8.39-3.4,12.58
			c-10.08,37.12-20.21,74.23-30.27,111.36c-4.06,15-15.64,23.89-31.36,23.9c-0.04,0-0.07,0-0.11,0c-1.79,0-2.25,2.46-0.59,3.13
			c8.06,3.22,14.88,8.39,20.26,15.86c7.56,10.51,10.25,22.18,8.32,34.99c-3.36,22.26-24.43,39.31-48.25,38.08
			c-21.73-1.13-40.11-17.61-42.9-39.56c-2.92-22.98,9.91-41.58,28.63-49.18c1.65-0.67,1.17-3.12-0.61-3.12H515.44
			c-1.77,0-2.27,2.45-0.63,3.12c19.49,7.87,31.67,26.52,29.64,46.78c-2.46,24.63-23.59,42.78-48.07,42.13
			c-21.63-0.57-42.51-20.09-43.96-41.76C450.97,513.51,463,494.96,482.18,487.68z M482.89,530.8c0.07,8.34,7.52,15.61,15.81,15.4
			c8.23-0.2,15.27-7.42,15.18-15.58c-0.09-8.43-7.33-15.48-15.82-15.41C489.97,515.29,482.83,522.62,482.89,530.8z M652.04,530.92
			c0.06-8.75-6.65-15.65-15.26-15.71c-8.23-0.06-15.22,6.94-15.28,15.29c-0.06,8.65,6.71,15.59,15.33,15.7
			C645.05,546.3,651.98,539.33,652.04,530.92z"/>
	</g>
</g>
</svg>
