<?xml version="1.0" encoding="utf-8"?>
<!-- Generator: Adobe Illustrator 25.0.0, SVG Export Plug-In . SVG Version: 6.00 Build 0)  -->
<svg version="1.1" id="Capa_1" xmlns="http://www.w3.org/2000/svg" xmlns:xlink="http://www.w3.org/1999/xlink" x="0px" y="0px"
	 viewBox="0 0 1080 1080" style="enable-background:new 0 0 1080 1080;" xml:space="preserve">
<style type="text/css">
	.st0{fill:#D46CFF;}
	.st1{fill:#00C4FF;}
</style>
<g>
	<g>
		<path class="st0" d="M928.65,206.53c25.32,0,45.92,20.6,45.92,45.92v575.11c0,25.32-20.6,45.92-45.92,45.92H151.35
			c-25.32,0-45.92-20.6-45.92-45.92V252.45c0-25.32,20.6-45.92,45.92-45.92H928.65 M928.65,180.27H151.35
			c-39.86,0-72.17,32.31-72.17,72.17v575.11c0,39.86,32.31,72.17,72.17,72.17h777.29c39.86,0,72.17-32.31,72.17-72.17V252.45
			C1000.82,212.59,968.51,180.27,928.65,180.27L928.65,180.27z"/>
	</g>
	<g>
		<rect x="79.18" y="391.39" class="st0" width="921.64" height="26.26"/>
	</g>
	<g>
		<path class="st0" d="M213.28,344.76c-26.89,0-48.76-21.88-48.76-48.76c0-26.89,21.88-48.76,48.76-48.76
			c26.89,0,48.76,21.88,48.76,48.76C262.05,322.88,240.17,344.76,213.28,344.76z M213.28,273.49c-12.41,0-22.51,10.1-22.51,22.51
			c0,12.41,10.1,22.51,22.51,22.51c12.41,0,22.51-10.1,22.51-22.51C235.79,283.58,225.69,273.49,213.28,273.49z"/>
	</g>
	<g>
		<path class="st0" d="M341.57,344.76c-26.89,0-48.76-21.88-48.76-48.76c0-26.89,21.88-48.76,48.76-48.76
			c26.89,0,48.76,21.88,48.76,48.76C390.33,322.88,368.46,344.76,341.57,344.76z M341.57,273.49c-12.41,0-22.51,10.1-22.51,22.51
			c0,12.41,10.1,22.51,22.51,22.51c12.41,0,22.51-10.1,22.51-22.51C364.07,283.58,353.98,273.49,341.57,273.49z"/>
	</g>
	<g>
		<path class="st0" d="M466.29,344.76c-26.89,0-48.76-21.88-48.76-48.76c0-26.89,21.88-48.76,48.76-48.76
			c26.89,0,48.76,21.88,48.76,48.76C515.06,322.88,493.18,344.76,466.29,344.76z M466.29,273.49c-12.41,0-22.51,10.1-22.51,22.51
			c0,12.41,10.1,22.51,22.51,22.51c12.41,0,22.51-10.1,22.51-22.51C488.8,283.58,478.7,273.49,466.29,273.49z"/>
	</g>
	<g>
		<path class="st1" d="M405.14,543.83c0,5.79-2.7,11.2-7.14,14.86l-99.61,80.5c-1.54,1.16-3.47,2.7-3.47,5.41
			c0,2.7,1.93,4.25,3.47,5.41L398,730.5c4.44,3.67,7.14,9.07,7.14,14.86c0,10.42-8.3,18.72-18.73,18.72
			c-4.44,0-8.49-1.54-12.35-4.83l-103.27-83.97c-12.35-10.23-18.14-19.11-18.14-30.69c0-11.58,5.79-20.65,18.14-30.69l103.27-83.97
			c3.86-3.09,7.91-4.83,12.35-4.83C396.84,525.11,405.14,533.6,405.14,543.83z"/>
		<path class="st1" d="M594.71,516.04c0,2.9-0.58,6.18-1.93,9.65L492.21,779.53c-2.89,7.34-9.46,12.93-18.34,12.93
			c-10.62,0-19.3-8.49-19.3-19.11c0-2.9,0.77-6.18,2.12-9.65l100.57-254.04c2.7-7.14,9.27-12.93,18.15-12.93
			C586.22,496.73,594.71,505.42,594.71,516.04z"/>
		<path class="st1" d="M674.44,529.94l103.28,83.97c12.35,10.04,18.14,19.11,18.14,30.69c0,11.58-5.79,20.46-18.14,30.69
			l-103.28,83.97c-3.86,3.28-7.91,4.83-12.35,4.83c-10.42,0-18.72-8.3-18.72-18.72c0-5.79,2.7-11.2,7.14-14.86l99.61-80.5
			c1.54-1.16,3.47-2.7,3.47-5.41c0-2.7-1.93-4.25-3.47-5.41l-99.61-80.5c-4.44-3.67-7.14-9.07-7.14-14.86
			c0-10.23,8.3-18.73,18.72-18.73C666.53,525.11,670.58,526.85,674.44,529.94z"/>
	</g>
</g>
</svg>
