<?xml version="1.0" encoding="utf-8"?>
<!-- Generator: Adobe Illustrator 25.0.0, SVG Export Plug-In . SVG Version: 6.00 Build 0)  -->
<svg version="1.1" id="Capa_1" xmlns="http://www.w3.org/2000/svg" xmlns:xlink="http://www.w3.org/1999/xlink" x="0px" y="0px"
	 viewBox="0 0 1080 1080" style="enable-background:new 0 0 1080 1080;" xml:space="preserve">
<style type="text/css">
	.st0{fill:url(#SVGID_1_);}
	.st1{fill:url(#SVGID_2_);}
</style>
<g>
	<linearGradient id="SVGID_1_" gradientUnits="userSpaceOnUse" x1="83.8322" y1="540" x2="677.5715" y2="540">
		<stop  offset="0" style="stop-color:#D46CFF"/>
		<stop  offset="0.1711" style="stop-color:#CF67FF"/>
		<stop  offset="0.3856" style="stop-color:#C157FF"/>
		<stop  offset="0.6233" style="stop-color:#AB3EFF"/>
		<stop  offset="0.8759" style="stop-color:#8B1AFF"/>
		<stop  offset="1" style="stop-color:#7906FF"/>
	</linearGradient>
	<path class="st0" d="M632.4,629.54c-21.32,0-44.39,8.8-66.7,25.43c-7.01,5.23-14.05,10.9-21.5,16.91l-5.83,4.69
		c-13.36,10.72-29.12,23.04-46.98,33.68c-30.71,18.28-65.31,27.95-100.07,27.95c-27.02,0-53.13-5.71-77.6-16.98
		c-62.14-28.6-106.73-91.23-113.6-159.57c-6.78-67.44,23.83-137.66,77.97-178.9c34.69-26.42,77.97-40.96,121.86-40.96h0
		c35.97,0,70.04,9.94,98.53,28.74c20.48,13.52,36.09,29.88,49.87,44.31c13.2,13.83,24.59,25.77,36.14,31.04
		c10.74,4.9,22.13,7.39,33.85,7.39c14.87,0,29.51-4.11,42.36-11.87c5.03-3.04,10.09-6.6,15.18-10.37
		c-43.92-115.2-155.37-197.08-285.99-197.08C220.85,233.96,83.83,370.98,83.83,540c0,169.02,137.02,306.04,306.04,306.04
		c132.31,0,244.99-83.96,287.7-201.51c-2.14-1.42-4.28-2.8-6.4-4.06C658.75,633.12,646.07,629.54,632.4,629.54z"/>
	<g>
		<linearGradient id="SVGID_2_" gradientUnits="userSpaceOnUse" x1="257.0607" y1="540" x2="996.1678" y2="540">
			<stop  offset="0" style="stop-color:#00C4FF"/>
			<stop  offset="0.9944" style="stop-color:#44FAE3"/>
		</linearGradient>
		<path class="st1" d="M962.58,448.03c-26.22-29.82-66.81-46.56-106.89-46.56c-18.02,0-35.93,3.38-52.38,10.48
			c-42.3,18.24-72.73,54.47-111.51,78.27c-0.39,0.24-0.77,0.5-1.17,0.74c-22.19,13.41-47.2,20.22-72.32,20.22
			c-19.67,0-39.4-4.17-57.9-12.62c-38.36-17.51-59.32-56.9-93.86-79.7c-19.89-13.13-43.16-19.16-66.63-19.17
			c-30.99,0-62.34,10.52-86.78,29.13c-38.4,29.24-60.27,79.01-55.44,127.04c4.83,48.03,36.35,92.58,80.2,112.77
			c17.15,7.9,35.3,11.67,53.4,11.67c24.42,0,48.75-6.88,70.45-19.8c14.28-8.5,27.4-18.69,40.38-29.1
			c9.59-7.69,19.1-15.5,28.94-22.84c30.64-22.85,65.77-36.92,101.31-36.92c20.13,0,40.38,4.51,60.04,14.49
			c2.75,1.4,5.49,2.9,8.22,4.51c41.13,24.34,72.14,64.53,118.84,79.45c12.58,4.02,25.68,5.93,38.81,5.93
			c45.93,0,92.13-23.46,117.07-62.37C1007.45,563.64,1001.82,492.65,962.58,448.03z"/>
	</g>
</g>
</svg>
