<?xml version="1.0" encoding="utf-8"?>
<!-- Generator: Adobe Illustrator 25.0.0, SVG Export Plug-In . SVG Version: 6.00 Build 0)  -->
<svg version="1.1" id="Capa_1" xmlns="http://www.w3.org/2000/svg" xmlns:xlink="http://www.w3.org/1999/xlink" x="0px" y="0px"
	 viewBox="0 0 1080 1080" style="enable-background:new 0 0 1080 1080;" xml:space="preserve">
<style type="text/css">
	.st0{fill:#D46CFF;}
	.st1{fill:#00C4FF;}
</style>
<g>
	<g>
		<path class="st0" d="M859.94,192.56c0-6.91-5.62-12.54-12.54-12.54h-76.53c-6.91,0-12.54,5.62-12.54,12.54v25.73H589.45
			l-1.56-4.39c-7.19-20.26-26.43-33.88-47.89-33.88s-40.71,13.61-47.89,33.88l-1.56,4.39H321.67v-25.73
			c0-6.91-5.62-12.54-12.54-12.54H232.6c-6.91,0-12.54,5.62-12.54,12.54v76.53c0,6.91,5.63,12.54,12.54,12.54h76.53
			c6.91,0,12.54-5.63,12.54-12.54v-25.98h108.89l-19.2,12.16c-65.73,41.63-107.97,112.97-112.98,190.83l-0.28,4.38l-4.15,1.43
			c-20.54,7.06-34.34,26.37-34.34,48.05c0,28.01,22.79,50.8,50.81,50.8s50.8-22.79,50.8-50.8c0-21.22-13.4-40.39-33.35-47.71
			l-4.68-1.72l0.37-4.97c6.98-92.55,74.17-173,163.41-195.64l5.16-1.31l2.37,4.76c8.67,17.43,26.11,28.26,45.5,28.26
			s36.83-10.83,45.51-28.26l2.37-4.76l5.16,1.31c89.23,22.65,156.43,103.1,163.41,195.64l0.37,4.97l-4.68,1.72
			c-19.94,7.32-33.34,26.5-33.34,47.71c0,28.01,22.79,50.8,50.8,50.8s50.8-22.79,50.8-50.8c0-21.68-13.8-40.99-34.34-48.05
			l-4.15-1.43l-0.28-4.38c-5-77.69-47.24-148.94-112.98-190.58l-19.2-12.16h108.89v25.73c0,6.91,5.62,12.54,12.54,12.54h76.53
			c6.91,0,12.54-5.63,12.54-12.54V192.56z M296.59,256.55h-51.45V205.1h51.45V256.55z M336.13,499.97
			c0,14.19-11.54,25.73-25.73,25.73c-14.19,0-25.73-11.54-25.73-25.73s11.54-25.73,25.73-25.73
			C324.59,474.24,336.13,485.78,336.13,499.97z M540,256.55c-14.19,0-25.73-11.54-25.73-25.73c0-14.19,11.54-25.73,25.73-25.73
			s25.73,11.54,25.73,25.73C565.73,245.01,554.19,256.55,540,256.55z M795.32,499.97c0,14.19-11.54,25.73-25.73,25.73
			c-14.19,0-25.73-11.54-25.73-25.73s11.54-25.73,25.73-25.73C783.78,474.24,795.32,485.78,795.32,499.97z M834.86,256.55h-51.45
			V205.1h51.45V256.55z"/>
	</g>
	<g>
		<path class="st1" d="M703.5,649.61L550.26,419.78c-0.13-0.18-0.31-0.42-0.49-0.65c-2.41-2.99-5.94-4.68-9.75-4.68
			c-0.16,0-0.31,0-0.47,0.01c-4,0.15-7.59,2.11-9.86,5.39l-0.2,0.28L376.5,649.61c-3.3,4.96-2.64,11.61,1.57,15.82
			c38.98,38.98,64.18,90.59,70.97,145.31l0.45,3.63l-2.84,2.3c-2.91,2.35-5.59,4.78-7.99,7.24c-16.76,17.15-25.99,39.7-25.99,63.52
			c0,6.91,5.62,12.54,12.54,12.54h229.6c6.91,0,12.54-5.62,12.54-12.54c0-23.82-9.23-46.38-25.99-63.52
			c-2.42-2.47-5.1-4.9-7.99-7.24l-2.85-2.3l0.45-3.64c6.78-54.72,31.99-106.33,70.97-145.31
			C706.14,661.22,706.8,654.57,703.5,649.61z M540,630.84c14.19,0,25.73,11.54,25.73,25.73c0,14.19-11.54,25.73-25.73,25.73
			s-25.73-11.54-25.73-25.73C514.27,642.38,525.81,630.84,540,630.84z M638.63,866.13L638.63,866.13l3.07,8.77H438.31l3.07-8.77
			c9.06-25.88,33.88-43.96,60.36-43.96h76.53C604.75,822.17,629.57,840.25,638.63,866.13z M673.62,658.9
			c-34.13,38.21-56.81,85.11-65.58,135.64l-1.22,7.02l-6.91-1.76c-7.04-1.8-14.32-2.71-21.64-2.71h-76.53
			c-7.32,0-14.61,0.91-21.64,2.71l-6.91,1.77l-1.22-7.03c-8.77-50.52-31.45-97.43-65.58-135.64l-3.39-3.8l124.47-186.71v138.73
			l-4.39,1.56c-20.26,7.19-33.87,26.44-33.87,47.9c0,28.01,22.79,50.8,50.8,50.8s50.81-22.79,50.81-50.8
			c0-21.46-13.61-40.71-33.88-47.9l-4.39-1.56V468.39l124.47,186.71L673.62,658.9z"/>
	</g>
</g>
</svg>
